<svg width="28" height="18" viewBox="0 0 28 18" fill="none" xmlns="http://www.w3.org/2000/svg">
<path d="M5.42494 17.9913C8.12077 17.9913 10.3673 15.9344 10.775 13.2353H12.098C12.3975 13.8601 13.0298 14.2941 13.762 14.2941C14.7855 14.2941 15.6092 13.4349 15.6092 12.376C15.6092 11.9074 15.4428 11.4734 15.1682 11.135L19.2536 6.57857L19.5697 7.42042C17.9223 8.38377 16.8073 10.2324 16.8073 12.3413C16.8073 15.4657 19.2369 17.9999 22.2406 17.9999C25.2276 17.9999 27.6489 15.4657 27.6489 12.3413C27.6489 9.21694 25.2276 6.6914 22.2406 6.6914C21.783 6.6914 21.3337 6.75215 20.9093 6.86497L18.5546 0.642235C18.3882 0.190935 18.0887 0 17.5645 0H15.0684C14.6607 0 14.3278 0.347154 14.3278 0.772418C14.3278 1.189 14.6607 1.53616 15.0684 1.53616H17.2733C17.3482 1.53616 17.3648 1.55351 17.3898 1.60559L18.721 5.14656L11.3241 6.2401L10.2342 4.11378H11.1494C11.5571 4.11378 11.8816 3.7753 11.8816 3.35004C11.8816 2.92477 11.5488 2.57762 11.1494 2.57762H7.58826C7.18888 2.57762 6.85606 2.92477 6.85606 3.35004C6.85606 3.7753 7.18056 4.11378 7.58826 4.11378H8.64496L9.80983 6.44839L8.61168 7.76757C7.72139 7.09062 6.61477 6.6914 5.42494 6.6914C2.42125 6.6914 0 9.21694 0 12.3413C0 15.4657 2.42958 17.9913 5.42494 17.9913ZM13.762 10.458C13.6705 10.458 13.5873 10.4667 13.4958 10.4754L12.0064 7.56796L17.2566 6.79554L13.9035 10.458C13.8536 10.458 13.812 10.458 13.762 10.458ZM10.8249 11.8032C10.7168 10.6576 10.2841 9.60749 9.62678 8.76564L10.5004 7.81965L12.2394 11.2912C12.1312 11.4474 12.0564 11.621 11.9981 11.8032H10.8249ZM5.42494 16.4464C3.24498 16.4464 1.49768 14.6239 1.49768 12.3413C1.49768 10.0761 3.2533 8.24491 5.42494 8.24491C6.22371 8.24491 6.95591 8.48792 7.57162 8.9045L5.55807 11.1176C5.51647 11.1089 5.47486 11.1089 5.42494 11.1089C4.76763 11.1089 4.25176 11.6383 4.24344 12.3413C4.23512 13.027 4.7593 13.5737 5.42494 13.5737C5.74112 13.5737 6.03234 13.4435 6.24035 13.2353H9.26068C8.87793 15.0752 7.30537 16.4464 5.42494 16.4464ZM22.2406 16.4464C20.0606 16.4464 18.305 14.6239 18.305 12.3413C18.305 10.892 19.0289 9.61617 20.1189 8.88715L21.1922 11.7512C21.109 11.9247 21.0508 12.1244 21.0508 12.3413C21.0425 13.027 21.5666 13.5737 22.2406 13.5737C22.8979 13.5737 23.4138 13.027 23.4138 12.3413C23.4138 11.7598 23.0477 11.2825 22.5318 11.1436L21.4668 8.32302C21.7164 8.27095 21.9743 8.24491 22.2406 8.24491C24.4039 8.24491 26.1679 10.0848 26.1679 12.3413C26.1679 14.6152 24.4039 16.4464 22.2406 16.4464ZM6.8311 11.8032L8.58672 9.90257C8.96946 10.4407 9.23571 11.0916 9.32724 11.8032H6.8311ZM13.7704 12.9922C13.4292 12.9922 13.163 12.7145 13.163 12.3934C13.163 12.0462 13.4375 11.7512 13.7704 11.7512C14.1032 11.7512 14.3611 12.0376 14.3611 12.3934C14.3611 12.7232 14.1032 12.9922 13.7704 12.9922Z" fill="white"/>
</svg>
