<svg width="27" height="31" viewBox="0 0 27 31" fill="none" xmlns="http://www.w3.org/2000/svg">
<path d="M19.415 0C17.5508 0.21543 15.8363 1.12581 14.6137 2.54951C14.0172 3.20864 13.5683 3.98763 13.2973 4.8343C13.0262 5.68097 12.9392 6.57579 13.042 7.45882C13.9793 7.44017 14.9006 7.21254 15.7387 6.79255C16.5768 6.37257 17.3106 5.7708 17.8866 5.03116C18.4659 4.33803 18.8998 3.53537 19.1624 2.67101C19.425 1.80665 19.5109 0.898267 19.415 0Z" fill="black"/>
<path d="M26.0752 10.4001C25.3598 9.46667 24.4486 8.70137 23.4056 8.15804C22.3627 7.6147 21.2133 7.30653 20.0384 7.25523C17.2051 7.25523 16.0052 8.58629 14.0371 8.58629C12.0074 8.58629 10.465 7.25987 8.01424 7.25987C6.67964 7.32684 5.38147 7.71802 4.23206 8.39955C3.08265 9.08108 2.11663 10.0324 1.4176 11.1713C-0.86817 14.6462 -0.476412 21.1812 3.22678 26.749C4.55166 28.7402 6.32228 30.9797 8.63581 30.9998C10.6964 31.0198 11.2763 29.7042 14.0664 29.6903C16.8565 29.6764 17.3871 31.0167 19.4415 30.9951C21.7551 30.9782 23.6244 28.4965 24.9493 26.5053C25.7489 25.3211 26.4322 24.0623 26.9898 22.7466C25.7603 22.3001 24.6861 21.5079 23.8964 20.4651C23.1067 19.4224 22.6351 18.1737 22.5385 16.8692C22.4419 15.5648 22.7243 14.2602 23.3517 13.1125C23.9792 11.9648 24.9249 11.0229 26.0752 10.4001Z" fill="black"/>
</svg>
