<svg width="28" height="28" viewBox="0 0 28 28" fill="none" xmlns="http://www.w3.org/2000/svg">
<g clip-path="url(#clip0_82_864)">
<path d="M5.37465 22.5623C8.04549 22.5623 10.2712 20.5244 10.6751 17.8503H11.9858C12.2826 18.4694 12.9091 18.8994 13.6345 18.8994C14.6484 18.8994 15.4645 18.0481 15.4645 16.9991C15.4645 16.5348 15.2996 16.1049 15.0276 15.7695L19.0751 11.2554L19.3883 12.0894C17.7561 13.0438 16.6515 14.8753 16.6515 16.9647C16.6515 20.0601 19.0586 22.5709 22.0344 22.5709C24.9938 22.5709 27.3926 20.0601 27.3926 16.9647C27.3926 13.8693 24.9938 11.3672 22.0344 11.3672C21.581 11.3672 21.1359 11.4273 20.7155 11.5391L18.3826 5.37407C18.2178 4.92696 17.921 4.73779 17.4017 4.73779H14.9287C14.5247 4.73779 14.195 5.08173 14.195 5.50305C14.195 5.91577 14.5247 6.25971 14.9287 6.25971H17.1131C17.1873 6.25971 17.2038 6.27691 17.2286 6.3285L18.5475 9.83664L11.2192 10.92L10.1393 8.81343H11.0461C11.45 8.81343 11.7715 8.4781 11.7715 8.05677C11.7715 7.63545 11.4417 7.29152 11.0461 7.29152H7.51791C7.12224 7.29152 6.7925 7.63545 6.7925 8.05677C6.7925 8.4781 7.11399 8.81343 7.51791 8.81343H8.56482L9.71888 11.1264L8.53184 12.4334C7.64981 11.7627 6.55345 11.3672 5.37465 11.3672C2.39881 11.3672 0 13.8693 0 16.9647C0 20.0601 2.40705 22.5623 5.37465 22.5623ZM13.6345 15.0989C13.5438 15.0989 13.4614 15.1075 13.3707 15.1161L11.8951 12.2356L17.0967 11.4703L13.7746 15.0989C13.7251 15.0989 13.6839 15.0989 13.6345 15.0989ZM10.7246 16.4316C10.6174 15.2966 10.1888 14.2562 9.53753 13.4222L10.4031 12.4849L12.1259 15.9243C12.0188 16.0791 11.9446 16.251 11.8869 16.4316H10.7246ZM5.37465 21.0318C3.2149 21.0318 1.4838 19.2261 1.4838 16.9647C1.4838 14.7205 3.22314 12.9063 5.37465 12.9063C6.16601 12.9063 6.89142 13.147 7.50143 13.5597L5.50654 15.7523C5.46533 15.7437 5.42411 15.7437 5.37465 15.7437C4.72343 15.7437 4.21234 16.2682 4.2041 16.9647C4.19585 17.644 4.71518 18.1857 5.37465 18.1857C5.6879 18.1857 5.97641 18.0567 6.1825 17.8503H9.17482C8.79563 19.6732 7.23764 21.0318 5.37465 21.0318ZM22.0344 21.0318C19.8747 21.0318 18.1353 19.2261 18.1353 16.9647C18.1353 15.5288 18.8525 14.2648 19.9324 13.5426L20.9958 16.38C20.9133 16.552 20.8556 16.7498 20.8556 16.9647C20.8474 17.644 21.3667 18.1857 22.0344 18.1857C22.6856 18.1857 23.1967 17.644 23.1967 16.9647C23.1967 16.3886 22.834 15.9157 22.3229 15.7781L21.2678 12.9837C21.5151 12.9321 21.7706 12.9063 22.0344 12.9063C24.1777 12.9063 25.9253 14.7291 25.9253 16.9647C25.9253 19.2175 24.1777 21.0318 22.0344 21.0318ZM6.76777 16.4316L8.50711 14.5486C8.88631 15.0817 9.15009 15.7265 9.24077 16.4316H6.76777ZM13.6427 17.6096C13.3047 17.6096 13.0409 17.3344 13.0409 17.0163C13.0409 16.6724 13.313 16.38 13.6427 16.38C13.9724 16.38 14.228 16.6638 14.228 17.0163C14.228 17.343 13.9724 17.6096 13.6427 17.6096Z" fill="white"/>
</g>
<defs>
<clipPath id="clip0_82_864">
<rect width="28" height="28" fill="white"/>
</clipPath>
</defs>
</svg>
