<svg width="34" height="33" viewBox="0 0 34 33" fill="none" xmlns="http://www.w3.org/2000/svg">
<path fill-rule="evenodd" clip-rule="evenodd" d="M7.11637 16.4802C7.11637 15.4097 7.30365 14.3833 7.63832 13.4208L1.78378 9.1795C0.642724 11.3773 0 13.8539 0 16.4802C0 19.1044 0.642181 21.5792 1.78133 23.7757L7.63262 19.5262C7.30121 18.568 7.11637 17.5455 7.11637 16.4802Z" fill="#FBBC05"/>
<path fill-rule="evenodd" clip-rule="evenodd" d="M17.3953 6.7419C19.8465 6.7419 22.0605 7.56591 23.8 8.91419L28.8604 4.12002C25.7768 1.57308 21.8233 0 17.3953 0C10.5208 0 4.61251 3.72965 1.7835 9.17941L7.63777 13.4207C8.98673 9.53605 12.8319 6.7419 17.3953 6.7419Z" fill="#EA4335"/>
<path fill-rule="evenodd" clip-rule="evenodd" d="M17.3953 26.2183C12.8322 26.2183 8.987 23.4241 7.63804 19.5395L1.7835 23.78C4.61251 29.2305 10.5208 32.9602 17.3953 32.9602C21.6382 32.9602 25.6891 31.5308 28.7293 28.8528L23.1722 24.7771C21.6043 25.7141 19.6297 26.2183 17.3953 26.2183Z" fill="#34A853"/>
<path fill-rule="evenodd" clip-rule="evenodd" d="M34 16.4801C34 15.5062 33.8417 14.4574 33.6045 13.4838H17.3953V19.851H26.7256C26.2591 22.022 24.9894 23.6909 23.1722 24.777L28.7293 28.8528C31.9228 26.0408 34 21.8518 34 16.4801Z" fill="#4285F4"/>
</svg>
