<svg width="21" height="18" viewBox="0 0 21 18" fill="none" xmlns="http://www.w3.org/2000/svg">
<path d="M0 0.857573C0 1.32698 0.397192 1.72417 0.848546 1.72417H3.67402L5.07322 11.2748C5.27182 12.6379 5.99398 13.4684 7.37513 13.4684H17.8826C18.3069 13.4684 18.6951 13.1344 18.6951 12.656C18.6951 12.1866 18.3069 11.8526 17.8826 11.8526H7.58275C7.14945 11.8526 6.87864 11.5547 6.81545 11.0943L6.67101 10.1555H17.9549C19.336 10.1555 20.0672 9.31595 20.2658 7.94383L20.9428 3.42126C20.9609 3.30391 20.9789 3.15045 20.9789 3.05115C20.9789 2.51856 20.6088 2.15747 19.986 2.15747H5.52457L5.38014 1.18255C5.26279 0.397192 4.94684 0 3.94483 0H0.848546C0.397192 0 0 0.397192 0 0.857573ZM6.53561 16.4203C6.53561 17.2959 7.23972 18 8.11535 18C8.99097 18 9.69509 17.2959 9.69509 16.4203C9.69509 15.5446 8.99097 14.8405 8.11535 14.8405C7.23972 14.8405 6.53561 15.5446 6.53561 16.4203ZM14.8676 16.4203C14.8676 17.2959 15.5807 18 16.4564 18C17.332 18 18.0271 17.2959 18.0271 16.4203C18.0271 15.5446 17.332 14.8405 16.4564 14.8405C15.5807 14.8405 14.8676 15.5446 14.8676 16.4203Z" fill="white" fill-opacity="0.6"/>
</svg>
