<svg width="10" height="17" viewBox="0 0 10 17" fill="none" xmlns="http://www.w3.org/2000/svg">
<path d="M10 8.49632C9.99024 8.16107 9.86291 7.87371 9.59846 7.61508L1.97846 0.325676C1.75319 0.114945 1.48874 0 1.16553 0C0.509306 0 0 0.498093 0 1.13987C0 1.44639 0.127327 1.73375 0.352597 1.95406L7.20864 8.49632L0.352597 15.0386C0.127327 15.2589 0 15.5367 0 15.8528C0 16.4946 0.509306 16.9926 1.16553 16.9926C1.47895 16.9926 1.75319 16.8777 1.97846 16.667L9.59846 9.36799C9.8727 9.11894 10 8.83158 10 8.49632Z" fill="white"/>
</svg>
