<svg width="19" height="18" viewBox="0 0 19 18" fill="none" xmlns="http://www.w3.org/2000/svg">
<path d="M6.96727 15.1694L11.2666 17.5669C11.4829 17.6841 11.6632 17.7742 11.8885 17.8283V2.85721L7.70636 0.333491C7.43596 0.171252 7.18359 0.0540797 6.96727 0V15.1694ZM0 16.3771C0 17.1613 0.495731 17.5939 1.21679 17.5939C1.47818 17.5939 1.74858 17.5128 2.05503 17.3506L5.64231 15.4037V0.0991461C5.44402 0.180266 5.20968 0.279412 4.96632 0.423624L0.892315 2.74004C0.279412 3.08254 0 3.56926 0 4.25427V16.3771ZM13.2045 17.7832C13.3126 17.7562 13.4208 17.7111 13.5199 17.639L18.0806 15.0612C18.7116 14.7097 19 14.232 19 13.547V1.48719C19 0.666983 18.4953 0.261385 17.7291 0.261385C17.4497 0.261385 17.1523 0.342505 16.8368 0.513757L13.2045 2.53273V17.7832Z" fill="white" fill-opacity="0.6"/>
</svg>
